G04 Layer: TopLayer*
G04 EasyEDA v6.5.51, 2025-11-13 20:11:19*
G04 3a8b1e04b7ed435a8d49abd4f33742c5,9a5be75d700b4a6385dc1106f27949ae,10*
G04 Gerber Generator version 0.2*
G04 Scale: 100 percent, Rotated: No, Reflected: No *
G04 Dimensions in millimeters *
G04 leading zeros omitted , absolute positions ,4 integer and 5 decimal *
%FSLAX45Y45*%
%MOMM*%

%ADD10C,0.2500*%
%ADD11R,1.6000X1.6000*%
%ADD12C,0.6200*%
%ADD13C,0.0173*%

%LPD*%
G36*
X39065Y-264058D02*
G01*
X39827Y-304292D01*
X60960Y-310997D01*
X65328Y-312826D01*
X69748Y-315163D01*
X74371Y-318262D01*
X79400Y-322376D01*
X84988Y-327710D01*
X102666Y-310032D01*
X97383Y-304393D01*
X93268Y-299364D01*
X90170Y-294741D01*
X87833Y-290372D01*
X86004Y-286004D01*
X79298Y-264820D01*
G37*
G36*
X515010Y-272338D02*
G01*
X497332Y-290017D01*
X502615Y-295656D01*
X506730Y-300634D01*
X509828Y-305257D01*
X512216Y-309676D01*
X514045Y-314045D01*
X520750Y-335178D01*
X560984Y-335940D01*
X560171Y-295706D01*
X539038Y-289001D01*
X534670Y-287172D01*
X530250Y-284835D01*
X525627Y-281736D01*
X520649Y-277622D01*
G37*
D10*
X49999Y-275000D02*
G01*
X98872Y-323872D01*
X111681Y-343044D01*
X120505Y-364345D01*
X125003Y-386958D01*
X125003Y-474995D01*
X549998Y-325000D02*
G01*
X501121Y-276123D01*
X488312Y-256951D01*
X479488Y-235651D01*
X474990Y-213037D01*
X474990Y-125008D01*
D11*
G01*
X124993Y-475005D03*
G01*
X475005Y-475005D03*
G01*
X475005Y-124993D03*
G01*
X124993Y-124993D03*
D12*
G01*
X550011Y-324993D03*
G01*
X50012Y-275005D03*
M02*
