G04 Layer: BottomPasteMaskLayer*
G04 EasyEDA v6.5.51, 2025-11-13 20:11:19*
G04 3a8b1e04b7ed435a8d49abd4f33742c5,9a5be75d700b4a6385dc1106f27949ae,10*
G04 Gerber Generator version 0.2*
G04 Scale: 100 percent, Rotated: No, Reflected: No *
G04 Dimensions in millimeters *
G04 leading zeros omitted , absolute positions ,4 integer and 5 decimal *
%FSLAX45Y45*%
%MOMM*%

%ADD10C,0.0160*%

%LPD*%
G36*
X301091Y-409676D02*
G01*
X298322Y-394588D01*
X293751Y-379958D01*
X287451Y-365963D01*
X279527Y-352856D01*
X270078Y-340766D01*
X259232Y-329920D01*
X247142Y-320471D01*
X234035Y-312546D01*
X220040Y-306247D01*
X205409Y-301675D01*
X190322Y-298907D01*
X175005Y-297992D01*
X159689Y-298907D01*
X144602Y-301675D01*
X129971Y-306247D01*
X115976Y-312546D01*
X102870Y-320471D01*
X90779Y-329920D01*
X79933Y-340766D01*
X70485Y-352856D01*
X62560Y-365963D01*
X56261Y-379958D01*
X51688Y-394588D01*
X48920Y-409676D01*
X48005Y-424992D01*
X48920Y-440309D01*
X51688Y-455396D01*
X56261Y-470027D01*
X62560Y-484022D01*
X70485Y-497128D01*
X79933Y-509219D01*
X90779Y-520064D01*
X102870Y-529513D01*
X115976Y-537438D01*
X129971Y-543737D01*
X144602Y-548309D01*
X159689Y-551078D01*
X175005Y-551992D01*
X190322Y-551078D01*
X205409Y-548309D01*
X220040Y-543737D01*
X234035Y-537438D01*
X247142Y-529513D01*
X259232Y-520064D01*
X270078Y-509219D01*
X279527Y-497128D01*
X287451Y-484022D01*
X293751Y-470027D01*
X298322Y-455396D01*
X301091Y-440309D01*
X302005Y-424992D01*
G37*
G36*
X551078Y-159689D02*
G01*
X548309Y-144602D01*
X543737Y-129971D01*
X537438Y-115976D01*
X529513Y-102870D01*
X520064Y-90779D01*
X509219Y-79933D01*
X497128Y-70485D01*
X484022Y-62560D01*
X470027Y-56261D01*
X455396Y-51688D01*
X440309Y-48920D01*
X424992Y-48005D01*
X409676Y-48920D01*
X394588Y-51688D01*
X379958Y-56261D01*
X365963Y-62560D01*
X352856Y-70485D01*
X340766Y-79933D01*
X329920Y-90779D01*
X320471Y-102870D01*
X312546Y-115976D01*
X306247Y-129971D01*
X301675Y-144602D01*
X298907Y-159689D01*
X297992Y-175005D01*
X298907Y-190322D01*
X301675Y-205409D01*
X306247Y-220040D01*
X312546Y-234035D01*
X320471Y-247142D01*
X329920Y-259232D01*
X340766Y-270078D01*
X352856Y-279527D01*
X365963Y-287451D01*
X379958Y-293751D01*
X394588Y-298322D01*
X409676Y-301091D01*
X424992Y-302005D01*
X440309Y-301091D01*
X455396Y-298322D01*
X470027Y-293751D01*
X484022Y-287451D01*
X497128Y-279527D01*
X509219Y-270078D01*
X520064Y-259232D01*
X529513Y-247142D01*
X537438Y-234035D01*
X543737Y-220040D01*
X548309Y-205409D01*
X551078Y-190322D01*
X551992Y-175005D01*
G37*
M02*
