G04 Layer: TopSilkscreenLayer*
G04 EasyEDA v6.5.51, 2025-11-13 20:11:19*
G04 3a8b1e04b7ed435a8d49abd4f33742c5,9a5be75d700b4a6385dc1106f27949ae,10*
G04 Gerber Generator version 0.2*
G04 Scale: 100 percent, Rotated: No, Reflected: No *
G04 Dimensions in millimeters *
G04 leading zeros omitted , absolute positions ,4 integer and 5 decimal *
%FSLAX45Y45*%
%MOMM*%

%ADD10C,0.2100*%
%ADD11C,0.0152*%

%LPD*%
G36*
X235966Y-257302D02*
G01*
X235966Y-271018D01*
X263652Y-271018D01*
X267766Y-271221D01*
X271526Y-271830D01*
X274878Y-272897D01*
X277876Y-274320D01*
X280619Y-276301D01*
X283006Y-278790D01*
X285089Y-281635D01*
X286766Y-284988D01*
X287985Y-288798D01*
X288848Y-293116D01*
X289407Y-297942D01*
X289560Y-303276D01*
X287832Y-317550D01*
X282702Y-327914D01*
X278841Y-331470D01*
X274066Y-334010D01*
X268427Y-335534D01*
X261874Y-336042D01*
X253238Y-336042D01*
X253238Y-271018D01*
X235966Y-271018D01*
X235966Y-350012D01*
X261366Y-350012D01*
X274828Y-348691D01*
X286258Y-344678D01*
X291185Y-341680D01*
X295452Y-338074D01*
X299161Y-333806D01*
X302260Y-328930D01*
X306476Y-317042D01*
X307848Y-302768D01*
X306527Y-289001D01*
X302514Y-277622D01*
X299567Y-272846D01*
X296011Y-268732D01*
X291947Y-265226D01*
X287274Y-262382D01*
X282194Y-260146D01*
X276606Y-258571D01*
X270510Y-257606D01*
X263906Y-257302D01*
G37*
G36*
X349758Y-257302D02*
G01*
X322580Y-279400D01*
X331470Y-289560D01*
X343052Y-279552D01*
X347472Y-274574D01*
X347472Y-280162D01*
X347218Y-284734D01*
X347218Y-350012D01*
X364490Y-350012D01*
X364490Y-257302D01*
G37*
D10*
X174998Y-575000D02*
G01*
X24998Y-575000D01*
X499998Y-375000D02*
G01*
X499998Y-225000D01*
X225021Y-499998D02*
G01*
X375020Y-499998D01*
X99999Y-375000D02*
G01*
X99999Y-225005D01*
X225000Y-99999D02*
G01*
X375000Y-99999D01*
X24998Y-575000D02*
G01*
X24998Y-425000D01*
M02*
