G04 Layer: BottomSolderMaskLayer*
G04 EasyEDA v6.5.48, 2025-02-22 14:02:27*
G04 be034796ce284c91afd7bcdb23f7a7e8,9a5be75d700b4a6385dc1106f27949ae,10*
G04 Gerber Generator version 0.2*
G04 Scale: 100 percent, Rotated: No, Reflected: No *
G04 Dimensions in millimeters *
G04 leading zeros omitted , absolute positions ,4 integer and 5 decimal *
%FSLAX45Y45*%
%MOMM*%

%ADD10C,0.0001*%

%LPD*%
G36*
X174701Y-557072D02*
G01*
X159385Y-556158D01*
X158775Y-556082D01*
X143687Y-553313D01*
X143078Y-553161D01*
X128447Y-548589D01*
X127888Y-548360D01*
X113893Y-542061D01*
X113360Y-541781D01*
X100253Y-533857D01*
X99745Y-533527D01*
X87655Y-524078D01*
X87198Y-523646D01*
X76352Y-512800D01*
X75920Y-512343D01*
X66471Y-500253D01*
X66141Y-499745D01*
X58216Y-486638D01*
X57937Y-486105D01*
X51638Y-472109D01*
X51409Y-471551D01*
X46837Y-456920D01*
X46685Y-456311D01*
X43916Y-441223D01*
X43840Y-440613D01*
X42926Y-425297D01*
X42926Y-424687D01*
X43840Y-409371D01*
X43916Y-408762D01*
X46685Y-393674D01*
X46837Y-393064D01*
X51409Y-378434D01*
X51638Y-377875D01*
X57937Y-363880D01*
X58216Y-363346D01*
X66141Y-350240D01*
X66471Y-349732D01*
X75920Y-337642D01*
X76352Y-337185D01*
X87198Y-326339D01*
X87655Y-325907D01*
X99745Y-316458D01*
X100253Y-316128D01*
X113360Y-308203D01*
X113893Y-307924D01*
X127888Y-301625D01*
X128447Y-301396D01*
X143078Y-296824D01*
X143687Y-296671D01*
X158775Y-293903D01*
X159385Y-293827D01*
X174701Y-292912D01*
X175310Y-292912D01*
X190627Y-293827D01*
X191236Y-293903D01*
X206324Y-296671D01*
X206933Y-296824D01*
X221564Y-301396D01*
X222122Y-301625D01*
X236118Y-307924D01*
X236651Y-308203D01*
X249758Y-316128D01*
X250266Y-316458D01*
X262356Y-325907D01*
X262813Y-326339D01*
X273659Y-337185D01*
X274091Y-337642D01*
X283540Y-349732D01*
X283870Y-350240D01*
X291795Y-363346D01*
X292074Y-363880D01*
X298373Y-377875D01*
X298602Y-378434D01*
X303174Y-393064D01*
X303326Y-393674D01*
X306095Y-408762D01*
X306171Y-409371D01*
X307086Y-424687D01*
X307086Y-425297D01*
X306171Y-440613D01*
X306095Y-441223D01*
X303326Y-456311D01*
X303174Y-456920D01*
X298602Y-471551D01*
X298373Y-472109D01*
X292074Y-486105D01*
X291795Y-486638D01*
X283870Y-499745D01*
X283540Y-500253D01*
X274091Y-512343D01*
X273659Y-512800D01*
X262813Y-523646D01*
X262356Y-524078D01*
X250266Y-533527D01*
X249758Y-533857D01*
X236651Y-541781D01*
X236118Y-542061D01*
X222122Y-548360D01*
X221564Y-548589D01*
X206933Y-553161D01*
X206324Y-553313D01*
X191236Y-556082D01*
X190627Y-556158D01*
X175310Y-557072D01*
G37*
G36*
X424687Y-307086D02*
G01*
X409371Y-306171D01*
X408762Y-306095D01*
X393674Y-303326D01*
X393064Y-303174D01*
X378434Y-298602D01*
X377875Y-298373D01*
X363880Y-292074D01*
X363346Y-291795D01*
X350240Y-283870D01*
X349732Y-283540D01*
X337642Y-274091D01*
X337185Y-273659D01*
X326339Y-262813D01*
X325907Y-262356D01*
X316458Y-250266D01*
X316128Y-249758D01*
X308203Y-236651D01*
X307924Y-236118D01*
X301625Y-222122D01*
X301396Y-221564D01*
X296824Y-206933D01*
X296671Y-206324D01*
X293903Y-191236D01*
X293827Y-190627D01*
X292912Y-175310D01*
X292912Y-174701D01*
X293827Y-159385D01*
X293903Y-158775D01*
X296671Y-143687D01*
X296824Y-143078D01*
X301396Y-128447D01*
X301625Y-127888D01*
X307924Y-113893D01*
X308203Y-113360D01*
X316128Y-100253D01*
X316458Y-99745D01*
X325907Y-87655D01*
X326339Y-87198D01*
X337185Y-76352D01*
X337642Y-75920D01*
X349732Y-66471D01*
X350240Y-66141D01*
X363346Y-58216D01*
X363880Y-57937D01*
X377875Y-51638D01*
X378434Y-51409D01*
X393064Y-46837D01*
X393674Y-46685D01*
X408762Y-43916D01*
X409371Y-43840D01*
X424687Y-42926D01*
X425297Y-42926D01*
X440613Y-43840D01*
X441223Y-43916D01*
X456311Y-46685D01*
X456920Y-46837D01*
X471551Y-51409D01*
X472109Y-51638D01*
X486105Y-57937D01*
X486638Y-58216D01*
X499745Y-66141D01*
X500253Y-66471D01*
X512343Y-75920D01*
X512800Y-76352D01*
X523646Y-87198D01*
X524078Y-87655D01*
X533527Y-99745D01*
X533857Y-100253D01*
X541781Y-113360D01*
X542061Y-113893D01*
X548360Y-127888D01*
X548589Y-128447D01*
X553161Y-143078D01*
X553313Y-143687D01*
X556082Y-158775D01*
X556158Y-159385D01*
X557072Y-174701D01*
X557072Y-175310D01*
X556158Y-190627D01*
X556082Y-191236D01*
X553313Y-206324D01*
X553161Y-206933D01*
X548589Y-221564D01*
X548360Y-222122D01*
X542061Y-236118D01*
X541781Y-236651D01*
X533857Y-249758D01*
X533527Y-250266D01*
X524078Y-262356D01*
X523646Y-262813D01*
X512800Y-273659D01*
X512343Y-274091D01*
X500253Y-283540D01*
X499745Y-283870D01*
X486638Y-291795D01*
X486105Y-292074D01*
X472109Y-298373D01*
X471551Y-298602D01*
X456920Y-303174D01*
X456311Y-303326D01*
X441223Y-306095D01*
X440613Y-306171D01*
X425297Y-307086D01*
G37*
M02*
